<svg width="773" height="113" viewBox="0 0 773 113" fill="none" xmlns="http://www.w3.org/2000/svg">
<path fill-rule="evenodd" clip-rule="evenodd" d="M43.8 79.6C40.4 81.2 36.3667 82 31.7 82H5.70001V12.3H30.7C35.4333 12.3 39.4667 13.1 42.8 14.7C46.1333 16.2333 48.6333 18.3333 50.3 21C51.9667 23.6667 52.8 26.6667 52.8 30C52.8 34.1333 51.6667 37.5667 49.4 40.3C48.6217 41.2435 47.7515 42.0951 46.7896 42.855C45.0326 44.2429 42.9694 45.3246 40.6 46.1C42.9035 46.4637 45.014 47.351 46.9316 48.7619C47.123 48.9027 47.3125 49.0488 47.5 49.2C49.6333 50.8667 51.3 52.9333 52.5 55.4C53.7667 57.8667 54.4 60.5 54.4 63.3C54.4 66.8333 53.5 70.0333 51.7 72.9C49.9 75.7 47.2667 77.9333 43.8 79.6ZM56.9725 53.1642C58.5893 56.331 59.4 59.7318 59.4 63.3C59.4 67.7307 58.2572 71.8596 55.9345 75.5588L55.9203 75.5814L55.9059 75.6038C53.5322 79.2963 50.1345 82.1024 45.9665 84.1063L45.9478 84.1153L45.929 84.1241C41.722 86.1039 36.9291 87 31.7 87H0.700012V7.29999H30.7C35.9638 7.29999 40.7648 8.18537 44.9265 10.1746C48.978 12.0454 52.2817 14.7367 54.54 18.35C56.7336 21.8597 57.8 25.7883 57.8 30C57.8 35.0948 56.3801 39.7122 53.2544 43.4849C52.5961 44.2826 51.8906 45.025 51.1403 45.7133C53.6011 47.7629 55.5521 50.261 56.9725 53.1642ZM38.0898 57.1335L38.0618 57.1097C36.5257 55.804 34.216 54.9 30.6 54.9H19.8V69.5H30.9C34.6887 69.5 36.9315 68.6105 38.2793 67.4754C39.5112 66.4381 40.3 64.9678 40.3 62.4C40.3 59.8262 39.4878 58.2869 38.1181 57.1569L38.0898 57.1335ZM14.8 74.5V49.9H30.6C35.0667 49.9 38.6333 51.0333 41.3 53.3C43.9667 55.5 45.3 58.5333 45.3 62.4C45.3 66.2 44.0333 69.1667 41.5 71.3C38.9667 73.4333 35.4333 74.5 30.9 74.5H14.8ZM19.8 37.4H30.1C33.6346 37.4 35.6167 36.5718 36.7461 35.6037C37.799 34.7012 38.5 33.4168 38.5 31.1C38.5 28.7832 37.799 27.4988 36.7461 26.5963C35.6413 25.6493 33.6136 24.8 29.9 24.8H19.8V37.4ZM30.1 42.4C34.3667 42.4 37.6667 41.4 40 39.4C42.3333 37.4 43.5 34.6333 43.5 31.1C43.5 27.5667 42.3333 24.8 40 22.8C37.6667 20.8 34.3 19.8 29.9 19.8H14.8V42.4H30.1ZM123.404 60.1L123.568 58.5145C123.783 56.4304 123.894 54.4243 123.894 52.5C123.894 46.7586 122.627 41.4502 119.983 36.703C117.397 31.8745 113.658 28.0689 108.859 25.3499C104.013 22.6038 98.5432 21.3 92.5943 21.3C86.513 21.3 80.9176 22.6367 75.948 25.4393C71.0129 28.193 67.1772 32.1749 64.4788 37.2542C61.767 42.3587 60.4943 48.157 60.4943 54.5C60.4943 60.8679 61.8106 66.705 64.592 71.8705L64.5997 71.8848L64.6075 71.8991C67.3657 76.9427 71.2094 80.9273 76.106 83.7368L76.1212 83.7455L76.1364 83.7541C81.09 86.5505 86.6175 87.9 92.5943 87.9C99.9888 87.9 106.557 86.0371 111.975 82.0145L111.994 82.0001L112.014 81.9855C117.277 77.9982 120.848 72.7734 122.611 66.4414L124.377 60.1H123.404ZM115.594 39.1C113.461 35.1 110.394 31.9667 106.394 29.7C102.394 27.4333 97.7943 26.3 92.5943 26.3C87.261 26.3 82.5277 27.4667 78.3943 29.8C74.3277 32.0667 71.161 35.3333 68.8943 39.6C66.6277 43.8667 65.4944 48.8333 65.4944 54.5C65.4944 60.1667 66.661 65.1667 68.9944 69.5C71.3277 73.7667 74.5277 77.0667 78.5943 79.4C82.7277 81.7333 87.3943 82.9 92.5943 82.9C99.1277 82.9 104.594 81.2667 108.994 78C111.91 75.7911 114.182 73.1578 115.809 70.1C116.638 68.5433 117.3 66.8767 117.794 65.1H107.994C106.928 68.1667 105.061 70.6333 102.394 72.5C99.7943 74.3 96.5277 75.2 92.5943 75.2C87.7943 75.2 83.6943 73.7 80.2943 70.7C78.0695 68.6531 76.5128 66.0864 75.6245 63C75.1819 61.4623 74.9052 59.7957 74.7943 58H118.594C118.794 56.0667 118.894 54.2333 118.894 52.5C118.894 47.5 117.794 43.0333 115.594 39.1ZM100.894 36C98.2943 34.6667 95.3943 34 92.1944 34C87.5944 34 83.661 35.4667 80.3943 38.4C78.3038 40.3163 76.7966 42.7163 75.8726 45.6C75.3822 47.1304 75.0561 48.7971 74.8943 50.6H109.494C109.494 48.7983 109.287 47.1316 108.873 45.6C108.49 44.1847 107.931 42.8847 107.194 41.7C105.661 39.1667 103.561 37.2667 100.894 36ZM103.599 45.6C103.407 45.1467 103.189 44.7278 102.948 44.3397L102.932 44.3144L102.917 44.289C101.889 42.5902 100.529 41.3618 98.7491 40.5164L98.6804 40.4838L98.6128 40.4491C96.7842 39.5114 94.6778 39 92.1944 39C88.7728 39 86.0525 40.0471 83.7545 42.1028C82.7367 43.04 81.8802 44.1856 81.2255 45.6H103.599ZM80.9072 63C81.5724 64.6242 82.5014 65.9266 83.6421 66.9856C86.0638 69.1067 88.9547 70.2 92.5943 70.2C95.7535 70.2 97.959 69.4857 99.5379 68.3963C101.34 67.1317 102.553 65.5248 103.272 63.4574L103.431 63H80.9072ZM147.306 28.5C150.439 26.9667 153.873 26.2 157.606 26.2C164.273 26.2 169.673 28.2333 173.806 32.3C177.939 36.3 180.006 42.1 180.006 49.7V82H171.006V51C171.006 45.5333 169.639 41.3667 166.906 38.5C164.173 35.5667 160.439 34.1 155.706 34.1C150.906 34.1 147.073 35.6 144.206 38.6C141.406 41.6 140.006 45.9667 140.006 51.7V82H130.906V27.2H140.006V35C141.33 32.9404 142.997 31.2235 145.006 29.8493C145.728 29.3552 146.495 28.9055 147.306 28.5ZM145.006 24.0599C145.027 24.0492 145.049 24.0385 145.07 24.0279L145.089 24.0183L145.108 24.0089C148.973 22.1175 153.166 21.2 157.606 21.2C165.365 21.2 172.09 23.6053 177.297 28.7207C182.678 33.9362 185.006 41.2063 185.006 49.7V87H166.006V51C166.006 46.3234 164.843 43.5819 163.287 41.9504L163.268 41.9296L163.248 41.9086C161.632 40.1738 159.325 39.1 155.706 39.1C152.052 39.1 149.613 40.1901 147.841 42.033C146.208 43.7965 145.006 46.7477 145.006 51.7V87H125.906V22.2H145.006V24.0599ZM191.785 19.985L191.736 19.9331C189.679 17.7549 188.671 15.0394 188.671 12.1C188.671 9.16059 189.679 6.44511 191.736 4.26688L191.785 4.21496L191.835 4.16446C193.995 2.00455 196.743 0.899994 199.771 0.899994C202.779 0.899994 205.533 1.99467 207.656 4.21472C209.783 6.36694 210.871 9.09577 210.871 12.1C210.871 15.1042 209.783 17.8331 207.656 19.9853C206.759 20.9239 205.748 21.6614 204.653 22.2H209.271V93.9C209.271 99.5235 207.844 104.707 203.954 108.282C200.244 111.691 195.241 113 189.771 113H179.471V95.3H188.271C189.146 95.3 189.71 95.2192 190.038 95.1392C190.103 94.8719 190.171 94.4122 190.171 93.7V22.2H194.856C193.76 21.6683 192.745 20.9456 191.835 20.0355L191.785 19.985ZM204.071 16.5C205.271 15.3 205.871 13.8333 205.871 12.1C205.871 10.3667 205.271 8.9 204.071 7.7C202.938 6.49999 201.504 5.9 199.771 5.9C198.038 5.9 196.571 6.49999 195.371 7.7C194.238 8.9 193.671 10.3667 193.671 12.1C193.671 13.8333 194.238 15.3 195.371 16.5C196.571 17.7 198.038 18.3 199.771 18.3C201.504 18.3 202.938 17.7 204.071 16.5ZM193.571 98.8C194.638 97.8 195.171 96.1 195.171 93.7V27.2H204.271V93.9C204.271 98.7667 203.038 102.333 200.571 104.6C198.104 106.867 194.504 108 189.771 108H184.471V100.3H188.271C190.804 100.3 192.571 99.8 193.571 98.8ZM253.376 36.7C250.576 35.0333 247.476 34.2 244.076 34.2C240.676 34.2 237.576 35 234.776 36.6C231.976 38.2 229.742 40.5333 228.076 43.6C226.409 46.6667 225.576 50.2667 225.576 54.4C225.576 58.6 226.409 62.2667 228.076 65.4C229.742 68.4667 231.976 70.8333 234.776 72.5C237.576 74.1 240.676 74.9 244.076 74.9C247.476 74.9 250.576 74.1 253.376 72.5C256.242 70.8333 258.509 68.4667 260.176 65.4C261.842 62.2667 262.676 58.6333 262.676 54.5C262.676 50.3667 261.842 46.7667 260.176 43.7C258.509 40.6333 256.242 38.3 253.376 36.7ZM255.772 63.0325C256.988 60.7364 257.676 57.94 257.676 54.5C257.676 51.047 256.983 48.2974 255.782 46.0876C254.538 43.7973 252.926 42.1753 250.939 41.066L250.878 41.0321L250.818 40.9965C248.826 39.8107 246.616 39.2 244.076 39.2C241.497 39.2 239.259 39.7966 237.256 40.9412C235.329 42.0424 233.73 43.6674 232.469 45.9876C231.268 48.1974 230.576 50.947 230.576 54.4C230.576 57.9212 231.269 60.7473 232.48 63.0326C233.739 65.3423 235.345 67.0111 237.295 68.1807C239.288 69.311 241.513 69.9 244.076 69.9C246.648 69.9 248.88 69.3065 250.879 68.1679C252.898 66.9904 254.523 65.3218 255.772 63.0325ZM257.676 77.6529C256.729 78.4203 255.696 79.136 254.576 79.8C251.042 81.8667 246.909 82.9 242.176 82.9C237.309 82.9 232.909 81.7 228.976 79.3C225.042 76.9 221.942 73.5333 219.676 69.2C217.409 64.8667 216.276 59.9333 216.276 54.4C216.276 48.8 217.409 43.9 219.676 39.7C221.942 35.4333 225.042 32.1333 228.976 29.8C232.976 27.4667 237.409 26.3 242.276 26.3C247.076 26.3 251.242 27.3333 254.776 29.4C255.821 30.0115 256.788 30.6697 257.676 31.3746C259.788 33.052 261.455 34.9938 262.676 37.2V27.2H271.876V82H262.676V71.8C261.436 74.004 259.769 75.955 257.676 77.6529ZM257.676 83.7677C257.494 83.8804 257.31 83.9916 257.125 84.1015L257.112 84.1087L257.1 84.1159C252.688 86.6966 247.656 87.9 242.176 87.9C236.444 87.9 231.134 86.4741 226.371 83.5682C221.616 80.6664 217.905 76.6034 215.245 71.5175C212.558 66.3796 211.276 60.6332 211.276 54.4C211.276 48.1211 212.549 42.3831 215.268 37.34C217.939 32.3175 221.661 28.3253 226.425 25.4997L226.44 25.4904L226.456 25.4811C231.26 22.6786 236.571 21.3 242.276 21.3C247.808 21.3 252.878 22.4973 257.3 25.0841C257.426 25.1577 257.551 25.2321 257.676 25.3072V22.2H276.876V87H257.676V83.7677ZM362.254 38.5C359.587 35.5667 355.954 34.1 351.354 34.1C346.62 34.1 342.854 35.6333 340.054 38.7C337.254 41.7 335.854 46.0667 335.854 51.8V82H326.854V51C326.854 45.5333 325.487 41.3667 322.754 38.5C320.087 35.5667 316.454 34.1 311.854 34.1C307.12 34.1 303.354 35.6333 300.554 38.7C297.754 41.7 296.354 46.0667 296.354 51.8V82H287.254V27.2H296.354V35.1C297.69 32.9722 299.356 31.2116 301.354 29.8184C302.047 29.3347 302.781 28.8952 303.554 28.5C306.62 26.9667 309.987 26.2 313.654 26.2C318.254 26.2 322.32 27.2333 325.854 29.3C327.702 30.381 329.304 31.7265 330.659 33.3364C331.896 34.8044 332.927 36.4922 333.754 38.4C334.51 36.4917 335.511 34.7945 336.755 33.3084C338.031 31.7833 339.564 30.4805 341.354 29.4C344.887 27.2667 348.82 26.2 353.154 26.2C357.42 26.2 361.22 27.1 364.554 28.9C367.887 30.6333 370.52 33.2667 372.454 36.8C374.387 40.3333 375.354 44.6333 375.354 49.7V82H366.354V51C366.354 45.5333 364.987 41.3667 362.254 38.5ZM366.895 24.4818C362.752 22.2529 358.13 21.2 353.154 21.2C347.957 21.2 343.122 22.4916 338.769 25.1197C336.85 26.2787 335.155 27.6503 333.693 29.2234C332.157 27.5773 330.385 26.158 328.378 24.9841C323.988 22.416 319.029 21.2 313.654 21.2C309.28 21.2 305.152 22.1177 301.354 24.0099V22.2H282.254V87H301.354V51.8C301.354 46.8276 302.565 43.8726 304.209 42.1116L304.228 42.0916L304.246 42.0713C305.962 40.1922 308.309 39.1 311.854 39.1C315.293 39.1 317.49 40.1429 319.054 41.8634L319.094 41.9073L319.135 41.9504C320.691 43.5819 321.854 46.3234 321.854 51V87H340.854V51.8C340.854 46.8276 342.065 43.8726 343.709 42.1116L343.728 42.0916L343.746 42.0713C345.462 40.1922 347.809 39.1 351.354 39.1C354.793 39.1 356.99 40.1429 358.554 41.8634L358.594 41.9073L358.635 41.9504C360.191 43.5819 361.354 46.3234 361.354 51V87H380.354V49.7C380.354 44.0069 379.267 38.8354 376.84 34.3999C374.473 30.0741 371.156 26.7062 366.895 24.4818ZM404.381 22.2V87H385.281V22.2H390.066C388.97 21.6683 387.956 20.9456 387.046 20.0355C384.886 17.8756 383.781 15.1276 383.781 12.1C383.781 9.07235 384.886 6.32437 387.046 4.16446C389.205 2.00455 391.953 0.899994 394.981 0.899994C397.985 0.899994 400.685 2.03781 402.767 4.21534C404.894 6.36746 405.981 9.09607 405.981 12.1C405.981 15.1039 404.894 17.8325 402.767 19.9847C401.877 20.9158 400.874 21.6568 399.782 22.2H404.381ZM399.181 16.5C400.381 15.3 400.981 13.8333 400.981 12.1C400.981 10.3667 400.381 8.9 399.181 7.7C398.048 6.49999 396.648 5.9 394.981 5.9C393.248 5.9 391.781 6.49999 390.581 7.7C389.381 8.9 388.781 10.3667 388.781 12.1C388.781 13.8333 389.381 15.3 390.581 16.5C391.781 17.7 393.248 18.3 394.981 18.3C396.648 18.3 398.048 17.7 399.181 16.5ZM431.29 28.5C434.424 26.9667 437.857 26.2 441.59 26.2C448.257 26.2 453.657 28.2333 457.79 32.3C461.924 36.3 463.99 42.1 463.99 49.7V82H454.99V51C454.99 45.5333 453.624 41.3667 450.89 38.5C448.157 35.5667 444.424 34.1 439.69 34.1C434.89 34.1 431.057 35.6 428.19 38.6C425.39 41.6 423.99 45.9667 423.99 51.7V82H414.89V27.2H423.99V35C425.314 32.9404 426.981 31.2235 428.99 29.8493C429.713 29.3552 430.479 28.9055 431.29 28.5ZM428.99 24.0599C429.012 24.0492 429.033 24.0385 429.054 24.0279L429.073 24.0183L429.093 24.0089C432.958 22.1175 437.15 21.2 441.59 21.2C449.35 21.2 456.075 23.6056 461.283 28.7218C466.662 33.9373 468.99 41.2069 468.99 49.7V87H449.99V51C449.99 46.3234 448.827 43.5819 447.272 41.9504L447.252 41.9296L447.232 41.9086C445.616 40.1738 443.309 39.1 439.69 39.1C436.037 39.1 433.597 40.1901 431.826 42.033C430.192 43.7965 428.99 46.7476 428.99 51.7V87H409.89V22.2H428.99V24.0599ZM581.215 7.79999V87H562.115V53.8987L547.361 87H534.473L519.615 53.7471V87H500.515V7.79999H518.556L540.915 57.7603L563.275 7.79999H581.215ZM540.915 70L515.315 12.8H505.515V82H514.615V30.3L537.715 82H544.115L567.115 30.4V82H576.215V12.8H566.515L540.915 70ZM646.158 60.1L646.322 58.5145C646.537 56.4304 646.648 54.4243 646.648 52.5C646.648 46.7586 645.381 41.4502 642.736 36.703C640.151 31.8745 636.411 28.0689 631.613 25.3499C626.767 22.6038 621.297 21.3 615.348 21.3C609.267 21.3 603.672 22.6366 598.702 25.4392C593.767 28.193 589.931 32.1749 587.233 37.2542C584.521 42.3587 583.248 48.157 583.248 54.5C583.248 60.8679 584.564 66.705 587.346 71.8705L587.354 71.8848L587.361 71.8991C590.12 76.9427 593.963 80.9273 598.86 83.7368L598.875 83.7455L598.89 83.7541C603.844 86.5505 609.371 87.9 615.348 87.9C622.743 87.9 629.311 86.0371 634.729 82.0145L634.748 82.0001L634.768 81.9855C640.031 77.9982 643.602 72.7734 645.365 66.4414L647.131 60.1H646.158ZM601.148 29.8C597.082 32.0667 593.915 35.3333 591.648 39.6C589.382 43.8667 588.248 48.8333 588.248 54.5C588.248 60.1667 589.415 65.1667 591.748 69.5C594.082 73.7667 597.282 77.0667 601.348 79.4C605.482 81.7333 610.148 82.9 615.348 82.9C621.882 82.9 627.348 81.2667 631.748 78C634.664 75.7911 636.936 73.1578 638.563 70.1C639.392 68.5433 640.053 66.8767 640.548 65.1H630.748C629.682 68.1667 627.815 70.6333 625.148 72.5C622.548 74.3 619.282 75.2 615.348 75.2C610.548 75.2 606.448 73.7 603.048 70.7C600.823 68.6531 599.267 66.0864 598.378 63C597.936 61.4623 597.659 59.7957 597.548 58H641.348C641.548 56.0667 641.648 54.2333 641.648 52.5C641.648 47.5 640.548 43.0333 638.348 39.1C636.215 35.1 633.148 31.9667 629.148 29.7C625.148 27.4333 620.548 26.3 615.348 26.3C610.015 26.3 605.282 27.4667 601.148 29.8ZM623.648 36C621.048 34.6667 618.148 34 614.948 34C610.348 34 606.415 35.4667 603.148 38.4C601.058 40.3163 599.55 42.7163 598.627 45.6C598.136 47.1304 597.81 48.7971 597.648 50.6H632.248C632.248 48.7983 632.041 47.1316 631.627 45.6C631.244 44.1847 630.685 42.8847 629.948 41.7C628.415 39.1667 626.315 37.2667 623.648 36ZM626.353 45.6C626.161 45.1467 625.943 44.7278 625.702 44.3397L625.686 44.3144L625.671 44.289C624.643 42.5902 623.283 41.3618 621.503 40.5164L621.434 40.4838L621.367 40.4491C619.538 39.5114 617.432 39 614.948 39C611.526 39 608.806 40.0473 606.508 42.1036C605.49 43.0406 604.634 44.1861 603.979 45.6H626.353ZM603.661 63C604.326 64.6245 605.256 65.9271 606.397 66.9862C608.818 69.1069 611.709 70.2 615.348 70.2C618.508 70.2 620.714 69.4854 622.293 68.3954C624.094 67.131 625.307 65.5242 626.026 63.4574L626.185 63H603.661ZM667.76 22.2V87H648.66V22.2H653.445C652.349 21.6683 651.335 20.9456 650.424 20.0355C648.265 17.8756 647.16 15.1276 647.16 12.1C647.16 9.07235 648.265 6.32437 650.424 4.16446C652.584 2.00455 655.332 0.899994 658.36 0.899994C661.363 0.899994 664.063 2.03718 666.144 4.21352C668.272 6.36594 669.36 9.09516 669.36 12.1C669.36 15.1048 668.272 17.8342 666.144 19.9866C665.254 20.9169 664.252 21.6571 663.161 22.2H667.76ZM732.779 60.1L732.943 58.5145C733.158 56.4304 733.269 54.4243 733.269 52.5C733.269 46.7586 732.002 41.4502 729.358 36.703C726.772 31.8745 723.033 28.0689 718.234 25.3499C713.388 22.6038 707.918 21.3 701.969 21.3C695.888 21.3 690.293 22.6366 685.323 25.4392C680.388 28.193 676.552 32.1749 673.854 37.2542C671.142 42.3587 669.869 48.157 669.869 54.5C669.869 60.8679 671.186 66.705 673.967 71.8705L673.975 71.8848L673.982 71.8991C676.741 76.9427 680.584 80.9273 685.481 83.7368L685.496 83.7455L685.511 83.7541C690.465 86.5505 695.993 87.9 701.969 87.9C709.364 87.9 715.932 86.0371 721.35 82.0145L721.369 82.0001L721.389 81.9855C726.652 77.9982 730.223 72.7734 731.986 66.4414L733.752 60.1H732.779ZM687.769 29.8C683.703 32.0667 680.536 35.3333 678.269 39.6C676.003 43.8667 674.869 48.8333 674.869 54.5C674.869 60.1667 676.036 65.1667 678.369 69.5C680.703 73.7667 683.903 77.0667 687.969 79.4C692.103 81.7333 696.769 82.9 701.969 82.9C708.503 82.9 713.969 81.2667 718.369 78C721.285 75.7911 723.557 73.1578 725.184 70.1C726.013 68.5433 726.675 66.8767 727.169 65.1H717.369C716.303 68.1667 714.436 70.6333 711.769 72.5C709.169 74.3 705.903 75.2 701.969 75.2C697.169 75.2 693.069 73.7 689.669 70.7C687.444 68.6531 685.888 66.0864 684.999 63C684.557 61.4623 684.28 59.7957 684.169 58H727.969C728.169 56.0667 728.269 54.2333 728.269 52.5C728.269 47.5 727.169 43.0333 724.969 39.1C722.836 35.1 719.769 31.9667 715.769 29.7C711.769 27.4333 707.169 26.3 701.969 26.3C696.636 26.3 691.903 27.4667 687.769 29.8ZM710.269 36C707.669 34.6667 704.769 34 701.569 34C696.969 34 693.036 35.4667 689.769 38.4C687.679 40.3163 686.172 42.7163 685.248 45.6C684.757 47.1304 684.431 48.7971 684.269 50.6H718.869C718.869 48.7983 718.662 47.1316 718.248 45.6C717.865 44.1847 717.306 42.8847 716.569 41.7C715.036 39.1667 712.936 37.2667 710.269 36ZM712.974 45.6C712.782 45.1467 712.564 44.7278 712.323 44.3397L712.307 44.3144L712.292 44.289C711.264 42.5902 709.904 41.3618 708.124 40.5164L708.055 40.4838L707.988 40.4491C706.159 39.5114 704.053 39 701.569 39C698.147 39 695.427 40.0473 693.129 42.1036C692.111 43.0406 691.255 44.1861 690.601 45.6H712.974ZM690.282 63C690.948 64.6245 691.877 65.9271 693.018 66.9862C695.439 69.1069 698.33 70.2 701.969 70.2C705.129 70.2 707.335 69.4854 708.914 68.3954C710.716 67.131 711.928 65.5242 712.647 63.4574L712.806 63H690.282ZM754.381 30.0154C754.95 29.5779 755.55 29.1728 756.181 28.8C757.932 27.7883 759.899 27.0719 762.081 26.6507C763.638 26.3502 765.305 26.2 767.081 26.2V35.6H764.681C754.481 35.6 749.381 41.1333 749.381 52.2V82H740.281V27.2H749.381V36.1C750.637 33.6405 752.304 31.6123 754.381 30.0154ZM754.381 24.0823V22.2H735.281V87H754.381V52.2C754.381 47.3408 755.509 44.6287 756.883 43.1386C758.185 41.7257 760.461 40.6 764.681 40.6H772.081V21.2H767.081C762.43 21.2 758.136 22.0914 754.381 24.0823ZM399.381 27.2H390.281V82H399.381V27.2ZM653.96 16.5C655.16 17.7 656.627 18.3 658.36 18.3C660.027 18.3 661.427 17.7 662.56 16.5C663.76 15.3 664.36 13.8333 664.36 12.1C664.36 10.3667 663.76 8.9 662.56 7.7C661.427 6.49999 660.027 5.9 658.36 5.9C656.627 5.9 655.16 6.49999 653.96 7.7C652.76 8.9 652.16 10.3667 652.16 12.1C652.16 13.8333 652.76 15.3 653.96 16.5ZM662.76 27.2H653.66V82H662.76V27.2Z" fill="white"/>
</svg>
